HIERARCHY
ROOT Hips
{
	OFFSET -0.001795 -0.223333 0.028219
	CHANNELS 6 Xposition Yposition Zposition Zrotation Yrotation Xrotation 
	JOINT LeftUpLeg
	{
		OFFSET 0.069520 -0.091406 -0.006815
		CHANNELS 3 Zrotation Yrotation Xrotation
		JOINT LeftLeg
		{
			OFFSET 0.034277 -0.375199 -0.004496
			CHANNELS 3 Zrotation Yrotation Xrotation
			JOINT LeftFoot
			{
				OFFSET -0.013596 -0.397961 -0.043693
				CHANNELS 3 Zrotation Yrotation Xrotation
				JOINT LeftToe
				{
					OFFSET 0.026358 -0.055791 0.119288
					CHANNELS 3 Zrotation Yrotation Xrotation
					End Site
					{
						OFFSET 0.000000 0.000000 0.000000
					}
				}
			}
		}
	}
	JOINT RightUpLeg
	{
		OFFSET -0.067670 -0.090522 -0.004320
		CHANNELS 3 Zrotation Yrotation Xrotation
		JOINT RightLeg
		{
			OFFSET -0.038290 -0.382569 -0.008850
			CHANNELS 3 Zrotation Yrotation Xrotation
			JOINT RightFoot
			{
				OFFSET 0.015774 -0.398415 -0.042312
				CHANNELS 3 Zrotation Yrotation Xrotation
				JOINT RightToe
				{
					OFFSET -0.025372 -0.048144 0.123348
					CHANNELS 3 Zrotation Yrotation Xrotation
					End Site
					{
						OFFSET 0.000000 0.000000 0.000000
					}
				}
			}
		}
	}
	JOINT Spine
	{
		OFFSET -0.002533 0.108963 -0.026696
		CHANNELS 3 Zrotation Yrotation Xrotation
		JOINT Spine1
		{
			OFFSET 0.005487 0.135180 0.001092
			CHANNELS 3 Zrotation Yrotation Xrotation
			JOINT Spine2
			{
				OFFSET 0.001457 0.052922 0.025425
				CHANNELS 3 Zrotation Yrotation Xrotation
				JOINT Neck
				{
					OFFSET -0.002778 0.213870 -0.042857
					CHANNELS 3 Zrotation Yrotation Xrotation
					JOINT Head
					{
						OFFSET 0.005152 0.064970 0.051349
						CHANNELS 3 Zrotation Yrotation Xrotation
						End Site
						{
							OFFSET 0.000000 0.000000 0.000000
						}
					}
				}
				JOINT LeftShoulder
				{
					OFFSET 0.078845 0.121749 -0.034090
					CHANNELS 3 Zrotation Yrotation Xrotation
					JOINT LeftArm
					{
						OFFSET 0.090977 0.030469 -0.008868
						CHANNELS 3 Zrotation Yrotation Xrotation
						JOINT LeftForeArm
						{
							OFFSET 0.259612 -0.012772 -0.027456
							CHANNELS 3 Zrotation Yrotation Xrotation
							JOINT LeftHand
							{
								OFFSET 0.249234 0.008986 -0.001171
								CHANNELS 3 Zrotation Yrotation Xrotation
								End Site
								{
									OFFSET 0.000000 0.000000 0.000000
								}
							}
						}
					}
				}
				JOINT RightShoulder
				{
					OFFSET -0.081759 0.118833 -0.038615
					CHANNELS 3 Zrotation Yrotation Xrotation
					JOINT RightArm
					{
						OFFSET -0.096012 0.032551 -0.009143
						CHANNELS 3 Zrotation Yrotation Xrotation
						JOINT RightForeArm
						{
							OFFSET -0.253742 -0.013329 -0.021401
							CHANNELS 3 Zrotation Yrotation Xrotation
							JOINT RightHand
							{
								OFFSET -0.255298 0.007772 -0.005559
								CHANNELS 3 Zrotation Yrotation Xrotation
								End Site
								{
									OFFSET 0.000000 0.000000 0.000000
								}
							}
						}
					}
				}
			}
		}
	}
}
MOTION
Frames: 16
Frame Time: 0.050000
0.000000 0.916375 0.000000 -0.212550 -1.438345 -3.674980 10.257631 -0.003275 -8.234574 -11.165530 2.809891 21.960170 9.632245 19.677433 3.765615 0.000000 0.000000 0.000000 -7.140303 0.631485 -13.020150 5.469771 -0.672421 25.623029 -5.413016 -13.587351 1.003088 0.000000 0.000000 0.000000 4.354863 -1.435761 18.882536 -8.139692 2.892841 -18.620396 -4.640711 3.038823 26.386324 9.832633 -3.705660 -26.906709 0.000000 0.000000 0.000000 -9.603796 -24.200867 9.682554 -42.373672 -41.165429 7.566514 43.201243 -57.682247 -21.161374 0.000000 0.000000 0.000000 16.692286 11.042674 5.351190 37.479264 44.210370 7.744970 -61.262959 80.870236 -47.063264 0.000000 0.000000 0.000000 
-0.000140 0.916149 0.000041 -0.394941 -2.651135 -2.844027 11.119738 0.081632 -8.342750 -12.615816 3.333718 21.307603 10.077518 20.465637 5.156557 0.000000 0.000000 0.000000 -6.965432 0.711080 -13.404110 5.303893 -0.518693 24.748491 -4.548079 -11.547790 0.920044 0.000000 0.000000 0.000000 4.649746 -1.345950 17.374802 -7.814390 2.732567 -19.088653 -5.602326 3.700539 27.014478 10.013000 -3.652828 -27.908314 0.000000 0.000000 0.000000 -10.155106 -24.066170 9.767248 -41.896055 -41.197097 7.381496 43.571998 -55.916485 -20.551602 0.000000 0.000000 0.000000 15.275143 10.720544 5.063282 33.678973 48.939992 7.954033 -75.991226 77.198272 -57.423825 0.000000 0.000000 0.000000 
-0.000226 0.916360 0.000145 -0.747947 -1.490813 -3.094557 11.245273 0.057788 -8.384858 -12.501130 3.186988 21.398184 10.224450 20.712280 5.205002 0.000000 0.000000 0.000000 -6.626397 0.690182 -13.004845 5.536760 -0.695695 24.940072 -5.072908 -13.061160 2.309860 0.000000 0.000000 0.000000 5.672912 -1.556670 17.662598 -7.874334 2.818641 -18.282269 -6.433146 3.409650 26.726048 10.679637 -4.386904 -25.549744 0.000000 0.000000 0.000000 -11.184182 -24.779399 10.170298 -41.064546 -41.789462 7.397185 43.660162 -54.572884 -20.157267 0.000000 0.000000 0.000000 12.897005 10.588890 4.877207 26.413905 52.917750 6.290659 -88.626231 69.491269 -61.717436 0.000000 0.000000 0.000000 
-0.000289 0.919128 0.000626 -0.546514 -1.182092 -3.496482 10.576128 0.006751 -7.689649 -11.712261 2.911914 21.401459 9.912027 20.172742 6.543799 0.000000 0.000000 0.000000 -6.673285 0.645169 -12.421756 5.434553 -0.685544 24.825169 -4.991769 -12.868322 2.307327 0.000000 0.000000 0.000000 6.409965 -1.643251 17.403810 -8.299912 2.983605 -17.855839 -7.567775 3.211984 26.867487 11.357422 -4.681147 -26.109891 0.000000 0.000000 0.000000 -10.354558 -25.753383 10.429362 -40.747305 -42.395247 7.575925 40.988993 -52.210879 -17.828845 0.000000 0.000000 0.000000 10.005205 8.979953 3.902217 20.270644 57.019606 4.525332 -90.627901 60.854571 -55.165382 0.000000 0.000000 0.000000 
-0.000477 0.922210 0.001566 -0.557519 -0.988054 -3.676004 10.039580 -0.028463 -6.781223 -11.016573 2.615202 20.519946 9.511958 19.502939 6.384475 0.000000 0.000000 0.000000 -6.255306 0.649650 -11.881181 5.034209 -0.570329 24.164396 -5.046427 -13.276718 3.877977 0.000000 0.000000 0.000000 6.104503 -1.610090 17.526638 -7.708274 2.801487 -18.028473 -7.912940 3.501331 26.579187 12.157220 -5.184258 -25.592051 0.000000 0.000000 0.000000 -10.504778 -26.717078 10.797978 -40.527528 -41.927854 7.362464 37.320258 -50.885620 -15.590814 0.000000 0.000000 0.000000 7.275074 8.945499 3.706698 10.258304 58.237355 0.143531 -89.415440 50.421334 -44.451310 0.000000 0.000000 0.000000 
-0.000872 0.925129 0.002562 -0.557111 -0.439898 -3.315025 9.505591 -0.079640 -6.427542 -10.514901 2.332796 19.141607 9.037109 18.757506 7.752555 0.000000 0.000000 0.000000 -5.921097 0.670623 -11.850376 4.400808 -0.410228 23.752425 -4.690720 -12.519996 4.061349 0.000000 0.000000 0.000000 6.251776 -1.571802 16.642188 -7.502438 2.741682 -18.060428 -8.547686 3.934074 26.924419 13.458184 -5.887701 -25.560703 0.000000 0.000000 0.000000 -9.863972 -27.517932 10.907351 -40.669308 -41.827174 7.314643 32.705268 -49.681610 -13.072405 0.000000 0.000000 0.000000 5.018624 8.121976 3.252803 0.458902 57.777401 -4.280545 -87.829804 41.685151 -35.428998 0.000000 0.000000 0.000000 
-0.001687 0.926858 0.003225 -0.466880 0.306152 -3.300001 9.117639 -0.118217 -6.400119 -10.101989 2.147425 18.942237 8.883997 18.529919 7.917856 0.000000 0.000000 0.000000 -5.682438 0.669380 -11.723344 4.209662 -0.406040 23.787853 -4.853769 -12.894047 4.301152 0.000000 0.000000 0.000000 6.574979 -1.608840 16.353274 -7.815568 2.851057 -18.098711 -8.771008 3.585378 26.983072 14.313650 -6.378555 -25.718651 0.000000 0.000000 0.000000 -9.189026 -28.257210 11.070012 -41.218572 -42.497950 7.723564 28.869824 -48.825901 -11.038711 0.000000 0.000000 0.000000 2.992311 7.765122 2.952158 -7.691261 56.163557 -7.710790 -83.128490 35.590509 -27.946418 0.000000 0.000000 0.000000 
-0.003385 0.927611 0.003592 -0.489832 0.897897 -3.056180 8.791896 -0.160943 -6.892588 -9.594134 1.960314 18.914552 8.586410 18.073361 8.186466 0.000000 0.000000 0.000000 -5.148874 0.728952 -12.107432 3.841666 -0.332577 24.321542 -4.976037 -13.057457 3.779676 0.000000 0.000000 0.000000 6.755903 -1.614341 15.946801 -7.723486 2.836966 -17.953969 -9.349409 3.846509 26.868529 15.552772 -7.069615 -25.646609 0.000000 0.000000 0.000000 -9.156621 -29.563505 11.516027 -41.717301 -43.211150 8.142612 24.908394 -48.757891 -9.273869 0.000000 0.000000 0.000000 1.431834 7.767513 2.839869 -12.979684 53.325961 -9.217004 -76.826898 32.236467 -22.704766 0.000000 0.000000 0.000000 
-0.005988 0.927378 0.003704 -0.383562 1.497179 -3.070487 8.663106 -0.182593 -6.993825 -9.338941 1.843731 18.838827 8.694782 18.279278 8.395738 0.000000 0.000000 0.000000 -5.014366 0.734170 -12.195951 3.746052 -0.348367 24.742769 -5.449144 -14.126837 4.141159 0.000000 0.000000 0.000000 7.043737 -1.655782 15.821565 -8.412223 3.056678 -17.961779 -9.458993 3.532936 27.354296 15.858619 -7.252789 -25.810347 0.000000 0.000000 0.000000 -9.183406 -30.204756 11.786999 -42.547376 -45.041165 9.098032 21.977108 -48.753399 -7.892167 0.000000 0.000000 0.000000 -0.528139 7.287221 2.493202 -15.296967 51.137015 -9.528538 -69.581700 30.794971 -19.106320 0.000000 0.000000 0.000000 
-0.009432 0.927383 0.003921 -0.426955 2.108585 -2.810339 8.824391 -0.194889 -7.043711 -9.230842 1.746874 18.245310 8.767298 18.413592 8.362461 0.000000 0.000000 0.000000 -4.671202 0.764032 -12.302196 3.752357 -0.402482 24.547519 -5.642223 -14.532960 4.164932 0.000000 0.000000 0.000000 7.132463 -1.647149 15.437087 -8.661113 3.165495 -17.543364 -9.639337 3.422388 27.056343 16.284499 -7.571641 -25.385281 0.000000 0.000000 0.000000 -9.234210 -30.967102 12.080572 -42.912062 -46.426304 9.808128 19.366523 -49.722078 -6.871441 0.000000 0.000000 0.000000 -2.074300 7.365317 2.381392 -15.622011 48.378169 -8.798529 -63.565326 31.498806 -17.471348 0.000000 0.000000 0.000000 
-0.013000 0.927928 0.004097 -0.421962 2.445535 -2.670895 9.039563 -0.194094 -6.963756 -9.260736 1.714595 17.788381 8.983573 18.775318 8.420545 0.000000 0.000000 0.000000 -4.514537 0.782335 -12.439717 3.637206 -0.390659 24.399897 -5.651580 -14.584447 4.553589 0.000000 0.000000 0.000000 7.219946 -1.652368 15.270786 -9.147063 3.309695 -17.645679 -9.633259 3.241014 27.485797 16.413796 -7.746267 -25.130355 0.000000 0.000000 0.000000 -8.543774 -31.325479 12.080991 -43.709230 -47.501099 10.498171 18.424211 -50.984830 -6.581885 0.000000 0.000000 0.000000 -3.679529 7.293687 2.207537 -15.428324 46.579343 -8.220506 -59.724193 31.986556 -16.473385 0.000000 0.000000 0.000000 
-0.016175 0.929075 0.004290 -0.545720 2.510436 -2.446512 9.334057 -0.186122 -6.876822 -9.286164 1.694593 17.226115 9.142984 19.064694 9.020577 0.000000 0.000000 0.000000 -4.216907 0.802838 -12.259395 3.707537 -0.416778 23.553887 -5.798887 -14.919986 4.728427 0.000000 0.000000 0.000000 7.594216 -1.649322 14.728347 -9.345747 3.392940 -17.244495 -9.895054 3.374124 27.479960 17.031223 -8.247939 -24.605632 0.000000 0.000000 0.000000 -7.853140 -31.492865 11.976089 -43.748428 -48.626807 10.964463 17.981927 -51.861080 -6.507711 0.000000 0.000000 0.000000 -4.448101 6.793086 1.977876 -14.750143 45.702562 -7.724164 -57.642538 32.609287 -16.039507 0.000000 0.000000 0.000000 
-0.018563 0.930311 0.004432 -0.553114 2.591667 -2.099818 9.405631 -0.191733 -6.814170 -9.118874 1.628375 16.725325 9.055314 18.943847 9.266471 0.000000 0.000000 0.000000 -4.135411 0.805208 -12.130856 3.754259 -0.431114 22.247411 -5.646105 -14.630053 5.100963 0.000000 0.000000 0.000000 7.758026 -1.662084 14.555218 -9.376459 3.369831 -17.662721 -9.816187 3.373080 27.900805 17.371287 -8.522460 -24.525270 0.000000 0.000000 0.000000 -7.568685 -31.462349 11.906128 -43.338868 -48.835549 10.853594 18.072290 -53.709695 -6.807403 0.000000 0.000000 0.000000 -4.478393 6.504656 1.884407 -14.702704 45.119518 -7.582880 -57.150953 33.016894 -16.110343 0.000000 0.000000 0.000000 
-0.020261 0.931190 0.004638 -0.510172 2.510889 -1.666648 9.598812 -0.191077 -6.810316 -8.895097 1.553735 16.056203 9.096908 19.041753 9.901574 0.000000 0.000000 0.000000 -3.957550 0.834121 -12.234863 3.722803 -0.410864 21.241125 -5.625675 -14.611523 5.280623 0.000000 0.000000 0.000000 7.998047 -1.625912 13.903835 -9.410552 3.380679 -17.519303 -9.823887 3.159051 27.874929 17.390488 -8.635051 -24.288647 0.000000 0.000000 0.000000 -7.462415 -31.122016 11.793672 -42.813622 -48.954397 10.722533 18.195403 -54.771399 -6.993747 0.000000 0.000000 0.000000 -4.397792 6.546888 1.920871 -14.439934 44.801397 -7.480000 -57.134497 33.094631 -16.173517 0.000000 0.000000 0.000000 
-0.021504 0.931522 0.004931 -0.524950 2.298784 -1.535167 9.506668 -0.192133 -6.758132 -8.600110 1.483553 15.775223 8.939158 18.808613 10.287677 0.000000 0.000000 0.000000 -3.895622 0.836863 -12.105753 3.739613 -0.400045 20.523876 -5.530837 -14.463486 5.679624 0.000000 0.000000 0.000000 8.179070 -1.648960 13.906399 -9.189017 3.284816 -17.881411 -9.839793 3.056125 28.185746 17.442006 -8.711951 -24.353491 0.000000 0.000000 0.000000 -7.677043 -30.739952 11.725812 -41.999104 -48.727231 10.310168 18.371275 -55.324232 -7.138786 0.000000 0.000000 0.000000 -3.441783 6.385750 1.958580 -14.764517 45.328094 -7.804173 -57.283211 33.629144 -16.600013 0.000000 0.000000 0.000000 
-0.022487 0.931740 0.005249 -0.453729 2.083636 -1.318997 9.671429 -0.183173 -6.624921 -8.566999 1.480543 15.555272 9.021992 18.936034 10.443892 0.000000 0.000000 0.000000 -4.054241 0.823625 -12.037836 3.951308 -0.446758 19.889363 -5.493387 -14.422700 5.910207 0.000000 0.000000 0.000000 8.131799 -1.623867 13.738361 -8.942507 3.209065 -17.769768 -9.539459 3.091431 28.007120 17.539112 -8.630152 -24.874865 0.000000 0.000000 0.000000 -8.296126 -30.393751 11.740122 -41.181366 -48.162782 9.801485 18.051762 -56.113208 -7.094386 0.000000 0.000000 0.000000 -2.210922 6.375895 2.061399 -14.292095 45.599222 -7.778073 -58.344067 34.446580 -17.443588 0.000000 0.000000 0.000000 
